HIERARCHY
ROOT Hips
{
	OFFSET 0.000000 0.000000 0.000000
	CHANNELS 6 Xposition Yposition Zposition Zrotation Yrotation Xrotation 
	JOINT LHipJoint
	{
		OFFSET 0.000000 0.000000 0.000000
		CHANNELS 3 Zrotation Yrotation Xrotation
		JOINT LeftUpLeg
		{
			OFFSET 1.363060 -1.794630 0.839290
			CHANNELS 3 Zrotation Yrotation Xrotation
			JOINT LeftLeg
			{
				OFFSET 2.448110 -6.726130 0.000000
				CHANNELS 3 Zrotation Yrotation Xrotation
				JOINT LeftFoot
				{
					OFFSET 2.562200 -7.039590 0.000000
					CHANNELS 3 Zrotation Yrotation Xrotation
					JOINT LeftToeBase
					{
						OFFSET 0.157640 -0.433110 2.322550
						CHANNELS 3 Zrotation Yrotation Xrotation
						End Site
						{
							OFFSET 0.000000 0.000000 0.000000
						}
					}
				}
			}
		}
	}
	JOINT RHipJoint
	{
		OFFSET 0.000000 0.000000 0.000000
		CHANNELS 3 Zrotation Yrotation Xrotation
		JOINT RightUpLeg
		{
			OFFSET -1.305520 -1.794630 0.839290
			CHANNELS 3 Zrotation Yrotation Xrotation
			JOINT RightLeg
			{
				OFFSET -2.542530 -6.985550 0.000000
				CHANNELS 3 Zrotation Yrotation Xrotation
				JOINT RightFoot
				{
					OFFSET -2.568260 -7.056230 0.000000
					CHANNELS 3 Zrotation Yrotation Xrotation
					JOINT RightToeBase
					{
						OFFSET -0.164730 -0.452590 2.363150
						CHANNELS 3 Zrotation Yrotation Xrotation
						End Site
						{
							OFFSET 0.000000 0.000000 0.000000
						}
					}
				}
			}
		}
	}
	JOINT LowerBack
	{
		OFFSET 0.000000 0.000000 0.000000
		CHANNELS 3 Zrotation Yrotation Xrotation
		JOINT Spine
		{
			OFFSET 0.028270 2.035590 -0.193380
			CHANNELS 3 Zrotation Yrotation Xrotation
			JOINT Spine1
			{
				OFFSET 0.056720 2.048850 -0.042750
				CHANNELS 3 Zrotation Yrotation Xrotation
				JOINT Neck
				{
					OFFSET 0.000000 0.000000 0.000000
					CHANNELS 3 Zrotation Yrotation Xrotation
					JOINT Neck1
					{
						OFFSET -0.054170 1.746240 0.172020
						CHANNELS 3 Zrotation Yrotation Xrotation
						JOINT Head
						{
							OFFSET 0.104070 1.761360 -0.123970
							CHANNELS 3 Zrotation Yrotation Xrotation
							End Site
							{
								OFFSET 0.000000 0.000000 0.000000
							}
						}
					}
				}
				JOINT LeftShoulder
				{
					OFFSET 0.000000 0.000000 0.000000
					CHANNELS 3 Zrotation Yrotation Xrotation
					JOINT LeftArm
					{
						OFFSET 3.362410 1.200890 -0.311210
						CHANNELS 3 Zrotation Yrotation Xrotation
						JOINT LeftForeArm
						{
							OFFSET 4.983000 -0.000000 -0.000000
							CHANNELS 3 Zrotation Yrotation Xrotation
							JOINT LeftHand
							{
								OFFSET 3.483560 -0.000000 -0.000000
								CHANNELS 3 Zrotation Yrotation Xrotation
								JOINT LeftFingerBase
								{
									OFFSET 0.000000 0.000000 0.000000
									CHANNELS 3 Zrotation Yrotation Xrotation
									JOINT LeftHandIndex1
									{
										OFFSET 0.715260 -0.000000 -0.000000
										CHANNELS 3 Zrotation Yrotation Xrotation
										End Site
										{
											OFFSET 0.000000 0.000000 0.000000
										}
									}
								}
								JOINT LThumb
								{
									OFFSET 0.000000 0.000000 0.000000
									CHANNELS 3 Zrotation Yrotation Xrotation
									End Site
									{
										OFFSET 0.000000 0.000000 0.000000
									}
								}
							}
						}
					}
				}
				JOINT RightShoulder
				{
					OFFSET 0.000000 0.000000 0.000000
					CHANNELS 3 Zrotation Yrotation Xrotation
					JOINT RightArm
					{
						OFFSET -3.136600 1.374050 -0.404650
						CHANNELS 3 Zrotation Yrotation Xrotation
						JOINT RightForeArm
						{
							OFFSET -5.241900 -0.000000 -0.000000
							CHANNELS 3 Zrotation Yrotation Xrotation
							JOINT RightHand
							{
								OFFSET -3.444170 -0.000000 -0.000000
								CHANNELS 3 Zrotation Yrotation Xrotation
								JOINT RightFingerBase
								{
									OFFSET 0.000000 0.000000 0.000000
									CHANNELS 3 Zrotation Yrotation Xrotation
									JOINT RightHandIndex1
									{
										OFFSET -0.622530 -0.000000 -0.000000
										CHANNELS 3 Zrotation Yrotation Xrotation
										End Site
										{
											OFFSET 0.000000 0.000000 0.000000
										}
									}
								}
								JOINT RThumb
								{
									OFFSET 0.000000 0.000000 0.000000
									CHANNELS 3 Zrotation Yrotation Xrotation
									End Site
									{
										OFFSET 0.000000 0.000000 0.000000
									}
								}
							}
						}
					}
				}
			}
		}
	}
}
MOTION
Frames: 9
Frame Time: 0.008333
-20.977314 15.887805 -2.145482 166.425961 57.523312 -164.882073 -1.748910 1.759068 3.615034 -9.648599 0.702824 3.556049 -0.708909 6.553744 19.319498 -2.167754 13.020622 20.526605 4.703500 -13.041900 -39.525400 -6.269449 1.759751 -5.128644 27.158459 4.069333 -75.116093 -11.277877 -22.867452 66.261190 0.322330 -2.549576 -3.645108 -1.580700 7.931800 -22.507100 -10.580617 -3.526451 28.446102 0.342832 -4.947617 -2.028343 4.225909 -2.642020 0.678851 -11.613688 -10.252144 -3.915693 11.742575 -15.073888 -3.732387 13.917400 -2.489700 -5.784400 -1.454103 -1.788017 2.826475 -63.606250 -45.829312 13.569559 29.227957 -36.574108 -14.991567 -2.755172 -0.848289 -3.242636 33.685957 27.291618 18.647600 -7.125000 0.000000 0.000000 7.904200 62.352900 3.345200 -2.840294 2.188762 1.924738 72.593228 4.641410 19.663043 -22.597490 36.271729 -11.387040 2.334890 -1.038364 -19.128491 -41.902522 27.237422 -24.700400 7.125000 0.000000 0.000000 -7.405800 6.902800 -8.308100 
-20.500262 15.920741 -2.434494 164.657902 58.373287 -166.558740 -1.907863 1.912658 3.854228 -10.913988 -0.709515 6.138899 -0.994506 6.114892 17.923299 -1.751360 13.157514 23.403031 5.440200 -13.863000 -42.691400 -6.228821 1.948049 -5.423030 29.095520 3.545831 -74.740127 -9.654801 -22.222132 61.987608 0.298824 -2.523239 -2.954349 -1.650100 8.095800 -23.005300 -11.321287 -3.146103 28.256219 0.380383 -4.437757 -1.982941 5.256174 -2.542110 1.010018 -12.488022 -10.200732 -4.017095 11.233341 -14.956362 -3.495892 13.633300 -2.460700 -5.713700 -1.395840 -1.628828 2.899033 -65.067138 -44.995315 15.001101 30.805729 -37.949718 -15.995630 -2.551560 -0.660809 -2.682593 32.646995 25.528590 16.835700 -7.125000 0.000000 0.000000 6.610800 60.007000 2.427200 -2.623014 1.962943 1.916807 70.853495 4.707026 19.550536 -22.544237 36.190660 -11.374779 2.390396 -0.922550 -21.199973 -40.653677 27.419160 -23.871500 7.125000 0.000000 0.000000 -6.698000 6.553700 -7.467300 
-20.038594 15.909914 -2.715871 162.554551 59.019964 -168.702206 -1.938733 1.868109 3.993043 -12.429585 -1.684032 8.297127 -1.181523 5.938485 17.682131 -0.790216 11.032236 25.792340 5.468100 -13.892300 -42.807800 -6.121805 2.061957 -5.609784 30.829770 2.744970 -74.169002 -8.382062 -21.593996 58.551799 0.416096 -2.960889 -1.789213 -1.778100 8.387800 -23.898300 -10.987148 -3.063230 28.392729 0.212038 -4.585047 -1.991697 3.282652 -2.377950 0.690182 -11.363196 -10.265240 -3.641552 10.877750 -14.683495 -3.624838 13.178100 -2.447000 -5.968800 -1.531818 -1.567177 2.715453 -64.203229 -42.928677 16.557493 32.837872 -39.634760 -17.292216 -2.357315 -0.851809 -4.058339 31.687927 25.048556 16.047600 -7.125000 0.000000 0.000000 5.275400 59.453100 1.865200 -2.785689 2.255324 1.994311 71.746597 4.546563 19.492783 -22.559338 36.293445 -11.432450 2.401316 -0.905026 -21.786175 -40.799415 26.572484 -23.431100 7.125000 0.000000 0.000000 -6.987600 5.683400 -7.700300 
-19.584677 15.898062 -2.993031 160.042979 59.813224 -171.141101 -1.956801 1.708336 4.017584 -14.234648 -1.884088 9.418725 -1.176913 6.240883 18.983930 0.262002 7.506728 26.983468 5.408900 -13.830000 -42.560700 -6.020035 2.271383 -5.785001 31.939080 2.031983 -73.277589 -7.373439 -21.022189 55.911521 -0.183702 -0.734429 -0.683211 -1.251100 7.091400 -19.986300 -11.508405 -2.736978 28.133186 0.144805 -4.327674 -1.957072 3.022203 -2.216055 0.888542 -11.435269 -10.268610 -3.518343 10.494922 -14.550310 -3.578090 12.929700 -2.408600 -6.091600 -1.580155 -1.398135 2.691166 -64.574673 -41.472430 18.194646 35.260313 -41.485786 -19.055451 -2.189744 -1.051711 -5.952757 30.308891 25.339956 15.464700 -7.125000 0.000000 0.000000 3.353000 59.623700 1.198000 -2.732976 2.228855 2.050824 71.069624 4.933841 19.363258 -22.319352 36.099209 -11.312269 2.432666 -0.844759 -22.443096 -40.278309 25.913693 -22.611000 7.125000 0.000000 0.000000 -6.886000 4.705200 -7.480000 
-19.114234 15.861024 -3.248082 157.338407 60.208284 -174.289633 -1.840515 1.530417 3.970692 -15.829147 -0.979497 9.894832 -0.897413 7.013632 21.844886 1.323609 2.893773 27.482769 5.581400 -14.010000 -43.277700 -5.861397 2.519443 -5.925635 32.700989 0.902528 -71.794390 -6.700546 -20.515823 54.034869 -0.335602 -0.109705 1.195304 -0.770800 5.606100 -15.645600 -12.348082 -2.421743 28.439212 0.097648 -4.158660 -1.915813 3.089237 -2.100069 1.024574 -11.621733 -10.396695 -3.435811 10.320791 -14.700104 -3.641145 12.814600 -2.453200 -6.166100 -1.630014 -1.267884 2.680025 -64.758173 -39.880752 19.520395 38.047370 -43.360142 -21.180122 -1.989589 -1.253859 -8.189620 28.232640 25.373832 14.359400 -7.125000 0.000000 0.000000 0.656200 59.350800 0.230000 -2.643951 2.213784 2.106301 70.343158 5.491219 19.313498 -21.925247 35.725453 -11.065221 2.461310 -0.803694 -22.919417 -39.716278 25.438190 -21.901400 7.125000 0.000000 0.000000 -6.704900 3.938300 -7.197600 
-18.641170 15.818060 -3.490939 154.963319 60.427854 -177.228502 -1.656341 1.354442 3.826856 -17.043158 0.638499 9.609470 -0.310397 8.172772 25.767458 2.039881 -1.003826 27.651469 5.580300 -14.008900 -43.273000 -5.647987 2.753893 -5.988670 33.347575 -0.335531 -70.090328 -6.306652 -20.125452 52.906724 -0.443359 0.313312 2.712843 -0.212400 2.967300 -8.187600 -13.228310 -2.105660 28.828328 0.088075 -3.947245 -1.877849 3.609373 -2.007689 1.169013 -12.127172 -10.547426 -3.455359 10.231624 -14.953953 -3.710270 12.814700 -2.504300 -6.158900 -1.656460 -1.170535 2.692639 -65.142917 -38.509685 20.493523 40.943701 -45.064479 -23.487293 -1.780434 -1.416554 -10.595765 25.886351 25.153470 13.001200 -7.125000 0.000000 0.000000 -2.197900 58.711600 -0.737000 -2.512113 2.178373 2.153210 69.291631 6.279539 19.323576 -21.379418 35.169661 -10.706328 2.503771 -0.771895 -23.236630 -39.242158 25.057388 -21.338500 7.125000 0.000000 0.000000 -6.553200 3.328000 -6.967200 
-18.176312 15.786264 -3.728667 153.365058 60.748193 -179.110434 -1.443643 1.150350 3.558145 -17.804649 2.421871 8.597549 0.627464 9.617544 30.423849 2.254308 -2.875875 27.422275 5.088400 -13.482600 -41.203100 -5.390815 2.934438 -5.952130 33.952038 -1.228164 -68.286604 -6.134308 -19.886169 52.381787 -0.401968 0.186210 5.057576 -2.595500 -10.009500 29.007600 -13.638786 -1.792689 28.686912 0.083099 -3.575846 -1.838895 4.034617 -1.853472 1.404534 -12.671813 -10.658137 -3.434192 10.126105 -15.182572 -3.676663 12.879600 -2.553800 -6.118300 -1.677044 -1.074887 2.718293 -65.549407 -37.433843 21.445621 43.886478 -46.625919 -25.889703 -1.576289 -1.535995 -12.917308 23.835375 24.792610 11.771400 -7.125000 0.000000 0.000000 -4.563300 57.971900 -1.450600 -2.389166 2.118593 2.207736 68.189116 7.259907 19.145332 -20.819587 34.586291 -10.347667 2.525767 -0.728436 -23.326059 -38.444019 24.293455 -20.290700 7.125000 0.000000 0.000000 -6.301300 2.137900 -6.571300 
-17.701311 15.773386 -3.956709 152.699902 60.955073 -179.841701 -1.164845 0.925523 3.202344 -17.953231 4.072840 7.026609 1.905000 11.206400 35.702929 2.165958 -3.421492 26.513393 4.521100 -12.823300 -38.710600 -5.108383 2.944722 -5.713323 34.573870 -1.678685 -66.361058 -6.360525 -19.886817 52.932062 0.025963 -1.713120 -0.491105 -2.467200 -9.778100 28.261000 -13.086307 -1.641701 28.446737 0.032239 -3.437085 -1.886321 3.346919 -1.674123 1.018208 -12.508250 -10.796796 -3.050968 10.044132 -15.331186 -3.738737 12.867200 -2.645500 -6.165800 -1.738392 -1.076630 2.672486 -65.194925 -35.728621 22.332561 47.246225 -48.180604 -28.703349 -1.347901 -1.674423 -14.800987 22.064681 24.642251 10.816700 -7.125000 0.000000 0.000000 -6.684900 57.575800 -2.064500 -2.391495 2.319332 2.250837 67.890515 7.789958 18.866021 -20.318916 34.083011 -10.059854 2.498051 -0.791672 -22.869467 -37.807430 24.111100 -19.766400 7.125000 0.000000 0.000000 -5.942800 1.757200 -6.155000 
-17.203859 15.770879 -4.173696 152.419389 61.130609 179.821718 -0.852491 0.731128 2.771844 -17.804187 5.557522 5.118904 3.502191 12.844761 41.507494 1.879434 -3.110068 24.807267 4.323200 -12.578500 -37.810600 -4.849966 2.966105 -5.482681 34.074968 -1.551759 -63.939028 -6.597582 -19.908190 53.532693 1.434604 -7.522431 -8.418157 -0.062400 -1.611500 4.433200 -12.671708 -1.460942 27.902434 0.028518 -3.063086 -1.870693 3.364536 -1.492477 1.250116 -12.842647 -10.910711 -3.203431 9.870914 -15.492453 -3.599721 12.859700 -2.711200 -5.960800 -1.775429 -0.997467 2.670075 -65.272029 -34.559128 22.964210 51.176400 -49.794057 -32.172316 -1.140531 -1.773235 -16.293641 20.515039 25.023309 10.168600 -7.125000 0.000000 0.000000 -8.754000 57.742400 -2.744600 -2.306944 2.297794 2.287236 66.901417 8.787467 18.348026 -19.647431 33.437940 -9.708391 2.534414 -0.921829 -22.209967 -38.176880 25.136256 -20.761800 7.125000 0.000000 0.000000 -5.898100 3.191300 -6.249800 
